<svg xmlns="http://www.w3.org/2000/svg" width="25" height="25" viewBox="0 0 25 25" fill="none">
  <path fill-rule="evenodd" clip-rule="evenodd" d="M4.13226 10.0778L11.2447 14.2156C11.3213 14.2602 11.4016 14.2923 11.4834 14.3128V22.3379L4.63953 18.2567C4.32511 18.0692 4.13226 17.7284 4.13226 17.3602V10.0778ZM20.6723 9.96777V17.3602C20.6723 17.7284 20.4795 18.0692 20.165 18.2567L13.3212 22.3379V14.2425C13.3379 14.2341 13.3544 14.2251 13.3708 14.2156L20.6723 9.96777Z" fill="#8F92A1"/>
  <path opacity="0.3" fill-rule="evenodd" clip-rule="evenodd" d="M4.35565 8.06947C4.44253 7.95892 4.55218 7.86549 4.68002 7.79688L11.9163 3.91319C12.2201 3.75015 12.5844 3.75015 12.8882 3.91319L20.1245 7.79688C20.223 7.84977 20.3107 7.91741 20.3856 7.99626L12.4518 12.6119C12.3996 12.6422 12.3515 12.677 12.3077 12.7153C12.2639 12.677 12.2158 12.6422 12.1636 12.6119L4.35565 8.06947Z" fill="#8F92A1"/>
</svg>