<svg xmlns="http://www.w3.org/2000/svg" width="25" height="25" viewBox="0 0 25 25" fill="none">
  <path opacity="0.3" fill-rule="evenodd" clip-rule="evenodd" d="M2.06476 20.375C2.06476 21.2034 2.73633 21.875 3.56476 21.875H21.2398C22.0682 21.875 22.7398 21.2034 22.7398 20.375V8.79168C22.7398 7.96326 22.0682 7.29168 21.2398 7.29168H10.3348L7.67353 4.61008C7.39191 4.3263 7.00864 4.16669 6.60883 4.16669H3.56476C2.73633 4.16669 2.06476 4.83826 2.06476 5.66669V20.375Z" fill="#8F92A1"/>
  <path opacity="0.3" fill-rule="evenodd" clip-rule="evenodd" d="M4.13226 19.7917L10.3348 11.4583L16.5373 19.7917H4.13226Z" fill="#8F92A1"/>
  <path fill-rule="evenodd" clip-rule="evenodd" d="M11.3685 19.7917L15.5035 14.5834L19.6385 19.7917H11.3685Z" fill="#8F92A1"/>
  <path opacity="0.3" fill-rule="evenodd" clip-rule="evenodd" d="M18.6048 12.5C19.4611 12.5 20.1554 11.8005 20.1554 10.9375C20.1554 10.0746 19.4611 9.37503 18.6048 9.37503C17.7484 9.37503 17.0541 10.0746 17.0541 10.9375C17.0541 11.8005 17.7484 12.5 18.6048 12.5Z" fill="#8F92A1"/>
</svg>