<svg xmlns="http://www.w3.org/2000/svg" width="25" height="25" viewBox="0 0 25 25" fill="none">
  <path fill-rule="evenodd" clip-rule="evenodd" d="M7.09863 3.125C4.88949 3.125 3.09863 4.91586 3.09863 7.125V7.45838C3.09863 9.66752 4.8895 11.4584 7.09863 11.4584H17.7061C19.9153 11.4584 21.7061 9.66752 21.7061 7.45838V7.125C21.7061 4.91586 19.9153 3.125 17.7061 3.125H7.09863ZM9.30114 7.29166C9.30114 8.44226 8.37549 9.375 7.23364 9.375C6.09179 9.375 5.16614 8.44226 5.16614 7.29166C5.16614 6.14106 6.09179 5.20831 7.23364 5.20831C8.37549 5.20831 9.30114 6.14106 9.30114 7.29166Z" fill="#8F92A1"/>
  <path opacity="0.3" fill-rule="evenodd" clip-rule="evenodd" d="M7.09863 13.5417C4.88949 13.5417 3.09863 15.3325 3.09863 17.5417V17.875C3.09863 20.0842 4.8895 21.875 7.09863 21.875H17.7061C19.9153 21.875 21.7061 20.0842 21.7061 17.875V17.5417C21.7061 15.3325 19.9153 13.5417 17.7061 13.5417H7.09863ZM19.6385 17.7083C19.6385 18.8589 18.7129 19.7917 17.571 19.7917C16.4292 19.7917 15.5035 18.8589 15.5035 17.7083C15.5035 16.5577 16.4292 15.625 17.571 15.625C18.7129 15.625 19.6385 16.5577 19.6385 17.7083Z" fill="#8F92A1"/>
</svg>