<svg xmlns="http://www.w3.org/2000/svg" width="25" height="25" viewBox="0 0 25 25" fill="none">
  <path opacity="0.3" fill-rule="evenodd" clip-rule="evenodd" d="M15.0094 11.1672C14.4258 11.7553 14.4258 12.7086 15.0094 13.2966L17.282 15.5867C17.8656 16.1747 18.8117 16.1747 19.3952 15.5867L21.6679 13.2966C22.2514 12.7086 22.2514 11.7553 21.6679 11.1672L19.3952 8.8772C18.8117 8.28918 17.8656 8.28918 17.282 8.8772L15.0094 11.1672ZM2.60447 11.1672C2.02092 11.7553 2.02092 12.7086 2.60447 13.2966L4.8771 15.5867C5.46065 16.1747 6.40677 16.1747 6.99031 15.5867L9.26294 13.2966C9.84649 12.7086 9.84649 11.7553 9.26294 11.1672L6.99031 8.8772C6.40677 8.28918 5.46065 8.28918 4.8771 8.8772L2.60447 11.1672Z" fill="#8F92A1"/>
  <path fill-rule="evenodd" clip-rule="evenodd" d="M8.80711 4.91727C8.22356 5.50529 8.22356 6.45865 8.80711 7.04666L11.0797 9.33668C11.6633 9.92469 12.6094 9.92469 13.193 9.33668L15.4656 7.04666C16.0491 6.45865 16.0491 5.50529 15.4656 4.91727L13.193 2.62726C12.6094 2.03924 11.6633 2.03925 11.0797 2.62726L8.80711 4.91727ZM8.80711 17.4172C8.22356 18.0052 8.22356 18.9586 8.80711 19.5466L11.0797 21.8366C11.6633 22.4246 12.6094 22.4246 13.1929 21.8366L15.4656 19.5466C16.0491 18.9586 16.0491 18.0052 15.4656 17.4172L13.1929 15.1272C12.6094 14.5392 11.6633 14.5392 11.0797 15.1272L8.80711 17.4172Z" fill="#8F92A1"/>
</svg>