<svg xmlns="http://www.w3.org/2000/svg" width="25" height="25" viewBox="0 0 25 25" fill="none">
  <path fill-rule="evenodd" clip-rule="evenodd" d="M4.07617 8.44326C3.50954 8.51363 3.1068 9.03355 3.17663 9.60452C3.70519 13.9262 7.12852 17.2838 11.3685 17.7585V18.75H10.2673C9.1627 18.75 8.26727 19.6454 8.26727 20.75V20.8333H16.5373V20.75C16.5373 19.6454 15.6418 18.75 14.5373 18.75H13.436V17.7587C17.7231 17.2798 21.171 13.8542 21.6447 9.47326C21.7066 8.90135 21.2966 8.38721 20.7291 8.32488C20.1615 8.26256 19.6513 8.67567 19.5894 9.24758C19.1921 12.9211 16.1007 15.7328 12.4031 15.7328C8.74331 15.7328 5.67222 12.9768 5.22861 9.3497C5.15877 8.77872 4.64281 8.37289 4.07617 8.44326Z" fill="#8F92A1"/>
  <path opacity="0.3" fill-rule="evenodd" clip-rule="evenodd" d="M18.6048 8.33336C18.6048 11.7851 15.8278 14.5834 12.4023 14.5834C8.97672 14.5834 6.19977 11.7851 6.19977 8.33336C6.19977 4.88159 8.97672 2.08337 12.4023 2.08337C15.8278 2.08337 18.6048 4.88159 18.6048 8.33336ZM8.38678 7.4915C8.76054 7.46517 9.08471 7.74913 9.11085 8.12575C9.20111 9.42653 9.77248 10.4014 10.8593 11.1091C11.174 11.314 11.2643 11.7372 11.0609 12.0543C10.8576 12.3714 10.4376 12.4623 10.123 12.2574C8.67741 11.3162 7.87741 9.95119 7.75736 8.22113C7.73122 7.8445 8.01302 7.51784 8.38678 7.4915Z" fill="#8F92A1"/>
</svg>