<svg width="410" height="220" viewBox="0 0 410 220" fill="none" xmlns="http://www.w3.org/2000/svg">
<path d="M292.87 183.6C298.09 183.6 302.32 179.37 302.32 174.15C297.1 174.15 292.87 178.38 292.87 183.6Z" fill="#84E8F4"/>
<path d="M306.87 170.98C306.87 179.71 313.94 186.78 322.67 186.78C322.67 178.05 315.59 170.98 306.87 170.98Z" fill="#84E8F4"/>
<path d="M257.32 121.42C257.32 127.97 262.63 133.27 269.17 133.27C269.17 126.73 263.86 121.42 257.32 121.42Z" fill="#B3B3B3"/>
<path d="M376.68 31.07C384.17 31.07 390.25 24.99 390.25 17.5C382.76 17.5 376.68 23.57 376.68 31.07Z" fill="#84E8F4"/>
<path d="M254.06 50.65C245.24 50.65 238.09 57.8 238.09 66.62C246.91 66.62 254.06 59.47 254.06 50.65Z" fill="#84E8F4"/>
<path d="M358.91 117.55C367.07 117.55 373.68 110.94 373.68 102.78C365.52 102.78 358.91 109.4 358.91 117.55Z" fill="#B3B3B3"/>
<path d="M355.47 86.64C348.45 86.64 342.76 92.33 342.76 99.35C349.78 99.35 355.47 93.66 355.47 86.64Z" fill="#84E8F4"/>
<path d="M337.95 30.3C337.95 23.66 332.57 18.28 325.93 18.28C325.93 24.91 331.31 30.3 337.95 30.3Z" fill="#DEE1E6"/>
<path d="M240.15 207.3C240.15 213.85 245.46 219.15 252 219.15C252 212.61 246.69 207.3 240.15 207.3Z" fill="#84E8F4"/>
<path d="M258.95 191.76C258.95 196.5 262.79 200.35 267.54 200.35C267.54 195.6 263.69 191.76 258.95 191.76Z" fill="#B3B3B3"/>
<path d="M388.19 11.83C388.19 6.61 383.96 2.38 378.74 2.38C378.74 7.6 382.97 11.83 388.19 11.83Z" fill="#84E8F4"/>
<path d="M394.03 13.72C401.33 13.72 407.25 7.79999 407.25 0.48999C399.95 0.48999 394.03 6.40999 394.03 13.72Z" fill="#84E8F4"/>
<path d="M222.11 220.02C229.6 220.02 235.68 213.94 235.68 206.45C228.19 206.45 222.11 212.52 222.11 220.02Z" fill="#DEE1E6"/>
<path d="M325.16 86.21C325.16 93.7 331.23 99.78 338.73 99.78C338.73 92.28 332.65 86.21 325.16 86.21Z" fill="#84E8F4"/>
<path d="M241 70.75C241 76.35 245.54 80.88 251.13 80.88C251.14 75.28 246.6 70.75 241 70.75Z" fill="#84E8F4"/>
<path d="M233.79 70.92C228.38 70.92 224 75.3 224 80.71C229.41 80.71 233.79 76.33 233.79 70.92Z" fill="#DEE1E6"/>
<path d="M362 19.99C362 24.73 365.84 28.58 370.59 28.58C370.59 23.83 366.74 19.99 362 19.99Z" fill="#B3B3B3"/>
<path d="M287.2 13.89C287.2 6.4 281.13 0.320007 273.63 0.320007C273.64 7.82001 279.71 13.89 287.2 13.89Z" fill="#84E8F4"/>
<path d="M164.49 37.17C159.75 37.17 155.9 41.02 155.9 45.76C160.65 45.75 164.49 41.91 164.49 37.17Z" fill="#84E8F4"/>
<path d="M309.79 105.19C309.79 110.69 314.25 115.15 319.75 115.15C319.75 109.65 315.29 105.19 309.79 105.19Z" fill="#84E8F4"/>
<path d="M288.15 85.26C279.61 85.26 272.69 92.18 272.69 100.72C281.23 100.72 288.15 93.8 288.15 85.26Z" fill="#84E8F4"/>
<path d="M344.82 174.58C344.82 179.32 348.66 183.17 353.41 183.17C353.41 178.43 349.57 174.58 344.82 174.58Z" fill="#84E8F4"/>
<path d="M359.77 47.99C366.98 47.99 372.82 42.15 372.82 34.94C365.61 34.93 359.77 40.78 359.77 47.99Z" fill="#DEE1E6"/>
<path d="M234.22 1.78C228.34 1.78 223.57 6.54999 223.57 12.43C229.45 12.43 234.22 7.66 234.22 1.78Z" fill="#DEE1E6"/>
<path d="M326.45 81.31C332.52 81.31 337.44 76.39 337.44 70.32C331.37 70.32 326.45 75.24 326.45 81.31Z" fill="#84E8F4"/>
<path d="M360.97 122.02C360.97 127.9 365.74 132.67 371.62 132.67C371.62 126.79 366.85 122.02 360.97 122.02Z" fill="#84E8F4"/>
<path d="M396 46.1C401.12 46.1 405.27 41.95 405.27 36.82C400.16 36.82 396 40.98 396 46.1Z" fill="#B3B3B3"/>
<path d="M360.19 155.6C360.19 162.34 365.65 167.8 372.38 167.8C372.39 161.06 366.93 155.6 360.19 155.6Z" fill="#DEE1E6"/>
<path d="M360.28 150.53C366.92 150.53 372.3 145.15 372.3 138.51C365.66 138.51 360.28 143.89 360.28 150.53Z" fill="#84E8F4"/>
<path d="M310.39 28.66C315.23 28.66 319.15 24.74 319.15 19.9C314.31 19.9 310.39 23.83 310.39 28.66Z" fill="#84E8F4"/>
<path d="M305.75 -1.04999C296.74 -1.04999 289.43 6.26002 289.43 15.27C298.45 15.27 305.75 7.96001 305.75 -1.04999Z" fill="#84E8F4"/>
<path d="M322.93 15.27C322.93 6.26002 315.63 -1.04999 306.61 -1.04999C306.61 7.96001 313.92 15.27 322.93 15.27Z" fill="#B3B3B3"/>
<path d="M361.14 87.84C361.14 93.53 365.75 98.15 371.44 98.15C371.44 92.45 366.83 87.84 361.14 87.84Z" fill="#84E8F4"/>
<path d="M289.01 153.11C289.01 162.6 296.7 170.29 306.18 170.29C306.18 160.8 298.49 153.11 289.01 153.11Z" fill="#DEE1E6"/>
<path d="M292.78 149.33C298.09 149.33 302.4 145.02 302.4 139.71C297.09 139.71 292.78 144.02 292.78 149.33Z" fill="#84E8F4"/>
<path d="M219.45 85.26C210.91 85.26 203.99 92.18 203.99 100.72C212.53 100.72 219.45 93.8 219.45 85.26Z" fill="#DEE1E6"/>
<path d="M206.65 70.75C206.65 76.35 211.19 80.88 216.78 80.88C216.79 75.28 212.25 70.75 206.65 70.75Z" fill="#DEE1E6"/>
<path d="M241.69 140.14C241.69 144.98 245.61 148.9 250.45 148.9C250.45 144.06 246.53 140.14 241.69 140.14Z" fill="#84E8F4"/>
<path d="M274.24 69.63C274.24 76.46 279.78 82 286.61 82C286.6 75.17 281.07 69.63 274.24 69.63Z" fill="#84E8F4"/>
<path d="M289.01 84.4C289.01 93.89 296.7 101.58 306.18 101.58C306.18 92.09 298.49 84.4 289.01 84.4Z" fill="#DEE1E6"/>
<path d="M323.36 84.4C313.87 84.4 306.19 92.09 306.19 101.58C315.67 101.58 323.36 93.89 323.36 84.4Z" fill="#84E8F4"/>
<path d="M309.96 71C309.96 76.31 314.27 80.62 319.58 80.62C319.58 75.31 315.27 71 309.96 71Z" fill="#84E8F4"/>
<path d="M291.58 81.83C298.22 81.83 303.6 76.45 303.6 69.81C296.96 69.8 291.58 75.19 291.58 81.83Z" fill="#84E8F4"/>
<path d="M309.1 207.56C309.1 213.82 314.17 218.9 320.44 218.9C320.44 212.64 315.36 207.56 309.1 207.56Z" fill="#84E8F4"/>
<path d="M321.21 120.9C314.1 120.9 308.33 126.67 308.33 133.78C315.44 133.79 321.21 128.02 321.21 120.9Z" fill="#84E8F4"/>
<path d="M325.93 155.69C325.93 162.33 331.31 167.71 337.95 167.71C337.95 161.07 332.57 155.69 325.93 155.69Z" fill="#DEE1E6"/>
<path d="M356.33 154.49C348.36 154.49 341.9 160.95 341.9 168.92C349.87 168.91 356.33 162.45 356.33 154.49Z" fill="#84E8F4"/>
<path d="M344.57 139.97C344.57 145 348.65 149.07 353.67 149.07C353.67 144.05 349.59 139.97 344.57 139.97Z" fill="#84E8F4"/>
<path d="M323.61 152.85C332.81 152.85 340.27 145.39 340.27 136.19C331.07 136.19 323.61 143.65 323.61 152.85Z" fill="#DEE1E6"/>
<path d="M392.48 221.39C401.49 221.39 408.8 214.08 408.8 205.07C399.79 205.07 392.48 212.38 392.48 221.39Z" fill="#84E8F4"/>
<path d="M395.66 191.07C395.66 196.57 400.12 201.03 405.62 201.03C405.62 195.53 401.16 191.07 395.66 191.07Z" fill="#DEE1E6"/>
<path d="M324.99 48.42C332.67 48.42 338.9 42.19 338.9 34.51C331.22 34.5 324.99 40.73 324.99 48.42Z" fill="#DEE1E6"/>
<path d="M392.48 118.33C401.49 118.33 408.8 111.02 408.8 102.01C399.79 102.01 392.48 109.32 392.48 118.33Z" fill="#84E8F4"/>
<path d="M393.6 85.95C393.6 93.73 399.91 100.04 407.68 100.04C407.68 92.26 401.38 85.95 393.6 85.95Z" fill="#DEE1E6"/>
<path d="M319.41 54C314.29 54 310.14 58.15 310.14 63.28C315.25 63.28 319.41 59.12 319.41 54Z" fill="#DEE1E6"/>
<path d="M292.96 54C292.96 59.12 297.11 63.28 302.23 63.28C302.23 58.15 298.08 54 292.96 54Z" fill="#B3B3B3"/>
<path d="M204.42 34.16C204.42 42.22 210.96 48.76 219.02 48.76C219.02 40.7 212.48 34.16 204.42 34.16Z" fill="#84E8F4"/>
<path d="M395.49 184.03C401.18 184.03 405.79 179.42 405.79 173.72C400.1 173.72 395.49 178.34 395.49 184.03Z" fill="#84E8F4"/>
<path d="M387.85 157.32C383.01 157.32 379.09 161.24 379.09 166.08C383.92 166.08 387.85 162.16 387.85 157.32Z" fill="#84E8F4"/>
<path d="M182.95 18.7C176.78 18.7 171.79 23.7 171.79 29.87C177.96 29.87 182.95 24.87 182.95 18.7Z" fill="#DEE1E6"/>
<path d="M172.65 36.74C172.65 41.96 176.88 46.19 182.1 46.19C182.1 40.97 177.87 36.74 172.65 36.74Z" fill="#84E8F4"/>
<path d="M201.42 34.59C193.83 34.59 187.68 40.74 187.68 48.33C195.27 48.33 201.42 42.18 201.42 34.59Z" fill="#B3B3B3"/>
<path d="M358.48 186.69C367.11 186.69 374.11 179.69 374.11 171.06C365.47 171.06 358.48 178.06 358.48 186.69Z" fill="#84E8F4"/>
<path d="M378.57 173.98C378.57 179.39 382.95 183.77 388.36 183.77C388.36 178.36 383.98 173.98 378.57 173.98Z" fill="#DEE1E6"/>
<path d="M354.61 190.56C348.54 190.56 343.62 195.48 343.62 201.55C349.69 201.55 354.61 196.63 354.61 190.56Z" fill="#84E8F4"/>
<path d="M360.97 190.73C360.97 196.61 365.74 201.38 371.62 201.38C371.62 195.5 366.85 190.73 360.97 190.73Z" fill="#84E8F4"/>
<path d="M377.54 207.3C377.54 213.85 382.85 219.15 389.39 219.15C389.39 212.61 384.09 207.3 377.54 207.3Z" fill="#DEE1E6"/>
<path d="M360.97 218.56C366.85 218.56 371.62 213.79 371.62 207.91C365.73 207.91 360.97 212.67 360.97 218.56Z" fill="#84E8F4"/>
<path d="M274.58 207.39C274.58 213.84 279.81 219.07 286.26 219.07C286.26 212.62 281.03 207.39 274.58 207.39Z" fill="#DEE1E6"/>
<path d="M343.88 104.93C343.88 110.72 348.57 115.41 354.36 115.41C354.36 109.62 349.66 104.93 343.88 104.93Z" fill="#84E8F4"/>
<path d="M324.39 117.73C332.74 117.73 339.5 110.96 339.5 102.61C331.15 102.61 324.39 109.38 324.39 117.73Z" fill="#DEE1E6"/>
<path d="M323.96 119.36C323.96 128.18 331.11 135.33 339.93 135.33C339.93 126.51 332.78 119.36 323.96 119.36Z" fill="#84E8F4"/>
<path d="M250.79 191.33C245.57 191.33 241.34 195.56 241.34 200.78C246.56 200.78 250.79 196.55 250.79 191.33Z" fill="#B3B3B3"/>
<path d="M224.17 191.33C224.17 196.55 228.4 200.78 233.62 200.78C233.62 195.56 229.39 191.33 224.17 191.33Z" fill="#84E8F4"/>
<path d="M272.26 32.44C281.27 32.44 288.58 25.13 288.58 16.12C279.57 16.12 272.26 23.43 272.26 32.44Z" fill="#DEE1E6"/>
<path d="M269.43 64.82C269.43 57.99 263.89 52.45 257.06 52.45C257.06 59.28 262.6 64.82 269.43 64.82Z" fill="#DEE1E6"/>
<path d="M288.92 50.13C279.53 50.13 271.92 57.74 271.92 67.14C281.31 67.14 288.92 59.53 288.92 50.13Z" fill="#84E8F4"/>
<path d="M274.92 35.96C274.92 42.03 279.84 46.95 285.91 46.95C285.91 40.89 280.99 35.96 274.92 35.96Z" fill="#B3B3B3"/>
<path d="M359.08 14.32C367.05 14.32 373.51 7.86001 373.51 -0.109985C365.54 -0.109985 359.08 6.35002 359.08 14.32Z" fill="#84E8F4"/>
<path d="M354.18 12.17C354.18 6.56998 349.64 2.03998 344.05 2.03998C344.05 7.63998 348.59 12.17 354.18 12.17Z" fill="#84E8F4"/>
<path d="M392.48 152.68C401.49 152.68 408.8 145.37 408.8 136.36C399.79 136.36 392.48 143.67 392.48 152.68Z" fill="#84E8F4"/>
<path d="M394.89 155.95C394.89 162.31 400.04 167.46 406.4 167.46C406.39 161.1 401.24 155.95 394.89 155.95Z" fill="#DEE1E6"/>
<path d="M216.7 19.3C211.2 19.3 206.74 23.76 206.74 29.26C212.24 29.26 216.7 24.8 216.7 19.3Z" fill="#84E8F4"/>
<path d="M201.33 31.07C201.33 23.58 195.26 17.5 187.76 17.5C187.76 24.99 193.84 31.07 201.33 31.07Z" fill="#DEE1E6"/>
<path d="M395.06 53.05C395.06 59.22 400.06 64.22 406.22 64.22C406.22 58.05 401.22 53.05 395.06 53.05Z" fill="#84E8F4"/>
<path d="M390.94 83.29C390.94 75.04 384.25 68.35 376 68.35C375.99 76.6 382.68 83.29 390.94 83.29Z" fill="#84E8F4"/>
<path d="M253.2 17.15C245.33 17.15 238.95 23.53 238.95 31.41C246.82 31.41 253.2 25.03 253.2 17.15Z" fill="#84E8F4"/>
<path d="M269.77 30.81C269.77 23.6 263.93 17.76 256.72 17.76C256.72 24.97 262.56 30.81 269.77 30.81Z" fill="#84E8F4"/>
<path d="M357.02 83.72C357.02 74.99 349.95 67.92 341.22 67.92C341.22 76.64 348.29 83.72 357.02 83.72Z" fill="#B3B3B3"/>
<path d="M361.14 80.97C366.83 80.97 371.44 76.36 371.44 70.66C365.75 70.66 361.14 75.28 361.14 80.97Z" fill="#B3B3B3"/>
<path d="M341.13 66.62C349.95 66.62 357.1 59.47 357.1 50.65C348.28 50.65 341.13 57.8 341.13 66.62Z" fill="#84E8F4"/>
<path d="M251.82 121.59C245.46 121.59 240.31 126.74 240.31 133.1C246.67 133.1 251.82 127.95 251.82 121.59Z" fill="#DEE1E6"/>
<path d="M241.69 105.79C241.69 110.63 245.61 114.55 250.45 114.55C250.45 109.71 246.53 105.79 241.69 105.79Z" fill="#84E8F4"/>
<path d="M234.65 104.41C228.29 104.41 223.14 109.56 223.14 115.92C229.5 115.92 234.65 110.77 234.65 104.41Z" fill="#DEE1E6"/>
</svg>
