<svg xmlns="http://www.w3.org/2000/svg" width="25" height="26" viewBox="0 0 25 26" fill="none">
  <path fill-rule="evenodd" clip-rule="evenodd" d="M5.13232 4.00317C4.58004 4.00317 4.13232 4.45089 4.13232 5.00317V21.7532C4.13232 22.3054 4.58004 22.7532 5.13232 22.7532H6.23357C6.78586 22.7532 7.23357 22.3054 7.23357 21.7532V5.00317C7.23357 4.45089 6.78586 4.00317 6.23357 4.00317H5.13232ZM10.3011 4.00317C9.7488 4.00317 9.30109 4.45089 9.30109 5.00317V21.7532C9.30109 22.3054 9.7488 22.7532 10.3011 22.7532H11.4023C11.9546 22.7532 12.4023 22.3054 12.4023 21.7532V5.00317C12.4023 4.45089 11.9546 4.00317 11.4023 4.00317H10.3011Z" fill="#8F92A1"/>
  <rect opacity="0.3" width="3.10378" height="18.735" rx="1" transform="matrix(0.944749 -0.327795 0.323353 0.946278 13.9293 4.96588)" fill="#8F92A1"/>
</svg>