<svg xmlns="http://www.w3.org/2000/svg" width="25" height="25" viewBox="0 0 25 25" fill="none">
  <path opacity="0.3" fill-rule="evenodd" clip-rule="evenodd" d="M10.2122 13.2366L8.01928 15.4463C7.61558 15.8531 7.61558 16.5126 8.01928 16.9194C8.42299 17.3262 9.07752 17.3262 9.48123 16.9194L11.6741 14.7097L12.4051 15.4463C13.2125 16.2599 13.2125 17.579 12.4051 18.3926L9.48123 21.3388C8.67382 22.1524 7.36475 22.1524 6.55734 21.3388L3.63345 18.3926C2.82604 17.579 2.82604 16.2599 3.63345 15.4463L6.55734 12.5C7.36475 11.6864 8.67382 11.6864 9.48123 12.5L10.2122 13.2366Z" fill="#51459E"/>
  <path fill-rule="evenodd" clip-rule="evenodd" d="M14.598 11.7634L16.7909 9.55367C17.1946 9.14688 17.1946 8.48733 16.7909 8.08054C16.3872 7.67374 15.7327 7.67374 15.3289 8.08054L13.136 10.2902L12.4051 9.55367C11.5976 8.74008 11.5976 7.42099 12.4051 6.6074L15.3289 3.66112C16.1364 2.84753 17.4454 2.84753 18.2528 3.66112L21.1767 6.6074C21.9841 7.42099 21.9841 8.74008 21.1767 9.55367L18.2528 12.5C17.4454 13.3135 16.1364 13.3135 15.3289 12.5L14.598 11.7634Z" fill="#51459E"/>
  <path opacity="0.3" fill-rule="evenodd" clip-rule="evenodd" d="M4.33755 5.84394C3.94861 5.45203 3.94862 4.81661 4.33755 4.42469L4.39132 4.37051C4.78026 3.9786 5.41085 3.9786 5.79978 4.37051L7.31579 5.89812C7.70472 6.29004 7.70472 6.92546 7.31579 7.31737L7.26202 7.37155C6.87308 7.76347 6.24249 7.76347 5.85355 7.37155L4.33755 5.84394ZM8.62465 2.59084C8.62465 2.03133 9.06643 1.57776 9.61139 1.57776L9.70541 1.57776C10.2504 1.57776 10.6922 2.03133 10.6922 2.59084V4.7313C10.6922 5.29081 10.2504 5.74438 9.70541 5.74438L9.61139 5.74438C9.06643 5.74438 8.62465 5.29081 8.62465 4.7313L8.62465 2.59084ZM1.74306 9.52511C1.74306 8.9656 2.18484 8.51202 2.7298 8.51202L4.89132 8.51202C5.43628 8.51202 5.87806 8.9656 5.87806 9.52511V9.58231C5.87806 10.1418 5.43628 10.5954 4.89132 10.5954L2.7298 10.5954C2.18484 10.5954 1.74306 10.1418 1.74306 9.58231L1.74306 9.52511Z" fill="#51459E"/>
  <path opacity="0.3" fill-rule="evenodd" clip-rule="evenodd" d="M18.8848 20.5028C19.2737 20.8947 19.9043 20.8947 20.2932 20.5028L20.347 20.4487C20.7359 20.0568 20.7359 19.4213 20.347 19.0294L18.831 17.5018C18.4421 17.1099 17.8115 17.1099 17.4225 17.5018L17.3688 17.556C16.9798 17.9479 16.9798 18.5833 17.3688 18.9753L18.8848 20.5028ZM22.1316 16.1829C22.6765 16.1829 23.1183 15.7293 23.1183 15.1698V15.1126C23.1183 14.5531 22.6765 14.0995 22.1316 14.0995L19.9701 14.0995C19.4251 14.0995 18.9833 14.5531 18.9833 15.1126V15.1698C18.9833 15.7293 19.4251 16.1829 19.9701 16.1829L22.1316 16.1829ZM15.2503 23.1171C15.7953 23.1171 16.2371 22.6635 16.2371 22.104L16.2371 19.9634C16.2371 19.4039 15.7953 18.9503 15.2503 18.9503L15.1563 18.9503C14.6114 18.9503 14.1696 19.4039 14.1696 19.9634L14.1696 22.104C14.1696 22.6635 14.6114 23.1171 15.1563 23.1171L15.2503 23.1171Z" fill="#51459E"/>
</svg>