<svg xmlns="http://www.w3.org/2000/svg" width="23" height="26" viewBox="0 0 23 26" fill="none">
<rect x="3.6983" y="4.43573" width="6.47675" height="7.29165" rx="1.5" fill="#8F92A1"/>
<path opacity="0.3" fill-rule="evenodd" clip-rule="evenodd" d="M12.0255 5.93573C12.0255 5.1073 12.6971 4.43573 13.5255 4.43573H17.0023C17.8307 4.43573 18.5023 5.1073 18.5023 5.93573V10.2274C18.5023 11.0558 17.8307 11.7274 17.0023 11.7274H13.5255C12.6971 11.7274 12.0255 11.0558 12.0255 10.2274V5.93573ZM3.6983 15.3107C3.6983 14.4823 4.36988 13.8107 5.1983 13.8107H8.67505C9.50348 13.8107 10.1751 14.4823 10.1751 15.3107V19.6024C10.1751 20.4308 9.50348 21.1024 8.67506 21.1024H5.1983C4.36988 21.1024 3.6983 20.4308 3.6983 19.6024V15.3107ZM13.5256 13.8107C12.6971 13.8107 12.0256 14.4823 12.0256 15.3107V19.6024C12.0256 20.4308 12.6971 21.1024 13.5256 21.1024H17.0023C17.8308 21.1024 18.5023 20.4308 18.5023 19.6024V15.3107C18.5023 14.4823 17.8308 13.8107 17.0023 13.8107H13.5256Z" fill="#8F92A1"/>
</svg>