<svg xmlns="http://www.w3.org/2000/svg" width="25" height="26" viewBox="0 0 25 26" fill="none">
  <rect opacity="0.3" x="4.13226" y="4.63406" width="8.27" height="16.6667" fill="#8F92A1"/>
  <path fill-rule="evenodd" clip-rule="evenodd" d="M6.1997 9.84239V6.71739H9.30095C9.30095 6.71739 10.3347 6.71739 10.3347 5.67573C10.3347 4.63406 9.30095 4.63406 9.30095 4.63406H4.1322V9.84239C4.1322 9.84239 4.30957 10.8841 5.16595 10.8841C6.02234 10.8841 6.1997 9.84239 6.1997 9.84239ZM18.6047 6.7174H15.5034C15.5034 6.7174 14.4697 6.53868 14.4697 5.67574C14.4697 4.8128 15.5034 4.63408 15.5034 4.63408H20.6722V9.8424C20.6722 9.8424 20.6722 10.8841 19.6384 10.8841C18.6047 10.8841 18.6047 9.8424 18.6047 9.8424V6.7174ZM18.6047 16.0924V19.2174H15.5034C15.5034 19.2174 14.4697 19.2174 14.4697 20.2591C14.4697 21.3008 15.5034 21.3008 15.5034 21.3008H20.6722V16.0924C20.6722 16.0924 20.4948 15.0507 19.6384 15.0507C18.782 15.0507 18.6047 16.0924 18.6047 16.0924ZM9.30101 19.2174H6.19976V16.0924C6.19976 16.0924 6.19976 15.0508 5.16601 15.0508C4.13226 15.0508 4.13226 16.0924 4.13226 16.0924V21.3008H9.30101C9.30101 21.3008 10.3348 21.122 10.3348 20.2591C10.3348 19.3961 9.30101 19.2174 9.30101 19.2174Z" fill="#8F92A1"/>
</svg>